<?xml version="1.0" encoding="UTF-8" standalone="no"?>
<svg
   xmlns:dc="http://purl.org/dc/elements/1.1/"
   xmlns:cc="http://creativecommons.org/ns#"
   xmlns:rdf="http://www.w3.org/1999/02/22-rdf-syntax-ns#"
   xmlns:svg="http://www.w3.org/2000/svg"
   xmlns="http://www.w3.org/2000/svg"
   version="1.1"
   id="svg2"
   viewBox="0 0 599.99999 600.00001"
   height="640"
   width="640">
  <defs
     id="defs4" />
  <metadata
     id="metadata7">
    <rdf:RDF>
      <cc:Work
         rdf:about="">
        <dc:format>image/svg+xml</dc:format>
        <dc:type
           rdf:resource="http://purl.org/dc/dcmitype/StillImage" />
        <dc:title></dc:title>
      </cc:Work>
    </rdf:RDF>
  </metadata>
  <g
     transform="translate(0,-452.36215)"
     id="layer1">
    <path
       style="fill:#c6c6c6;fill-opacity:1;stroke:#000000;stroke-width:9.37499905;stroke-linecap:round;stroke-linejoin:round;stroke-miterlimit:4;stroke-dasharray:none;stroke-opacity:1"
       d="m 485.55308,612.53737 c -18.25596,-7.92065 -33.85084,-1.73869 -48.55914,11.66825 -10.65568,9.71287 -12.59113,26.60632 -13.89476,40.96756 -0.75758,8.34566 3.96897,16.49848 3.65567,24.8726 -0.45786,12.23755 -12.65731,24.50347 -8.04329,35.84661 4.71423,11.58949 19.20868,23.06811 31.44721,20.48177 12.23887,-2.5864 8.19473,-29.09025 20.47817,-31.4558 7.90317,-1.522 6.05477,20.595 16.82079,18.28796 10.76602,-2.30705 31.83849,-11.00314 35.10545,-26.33457 3.26697,-15.33144 2.95885,-42.6636 -2.19352,-59.25723 -4.32357,-13.92437 -21.44382,-29.27515 -34.81658,-35.07715 z"
       id="path873" />
    <ellipse
       ry="152.60158"
       rx="200.65501"
       cy="704.4032"
       cx="300.50983"
       id="path851"
       style="opacity:1;fill:#ffffff;fill-opacity:1;stroke:#000000;stroke-width:9.37499905;stroke-linecap:butt;stroke-linejoin:bevel;stroke-miterlimit:4;stroke-dasharray:none;stroke-dashoffset:0;stroke-opacity:1" />
    <ellipse
       ry="26.345205"
       rx="26.338001"
       cy="668.6427"
       cx="285.36905"
       id="path853"
       style="opacity:1;fill:#ff6600;fill-opacity:1;stroke:none;stroke-width:14.99999714;stroke-linecap:butt;stroke-linejoin:bevel;stroke-miterlimit:4;stroke-dasharray:none;stroke-dashoffset:0;stroke-opacity:1" />
    <path
       id="path857"
       d="m 299.35589,766.22783 49.00136,-7.31563 h 37.29954 l 34.37409,6.58407"
       style="fill:none;stroke:#000000;stroke-width:7.49999952;stroke-linecap:round;stroke-linejoin:round;stroke-miterlimit:4;stroke-dasharray:none;stroke-opacity:1" />
    <path
       id="path855"
       d="m 149.85725,605.9533 c -18.25595,-7.92065 -43.35856,0.45601 -58.066868,13.86294 -10.655684,9.71288 -12.591129,26.60632 -13.894767,40.96756 -0.757574,8.34566 3.968981,16.49848 3.655675,24.87259 -0.457851,12.23757 -12.65731,24.50348 -8.043286,35.84662 4.714229,11.58949 19.208688,23.06811 31.447206,20.48177 12.23887,-2.5864 8.19473,-29.09025 20.47818,-31.4558 7.90317,-1.522 14.63776,7.67764 19.74624,13.89857 16.28496,19.83127 11.21185,54.31101 31.22324,70.37181 3.31854,2.6634 9.30464,-0.26959 12.51158,2.52727 14.71144,12.83023 9.23391,38.57078 19.30193,55.29619 5.80202,9.63857 14.36322,17.47748 22.95236,24.74178 9.36566,7.92104 22.56629,11.06909 30.75652,20.20089 9.78726,10.91244 9.23999,29.22375 20.01785,39.15846 15.55242,14.33575 37.50872,24.25812 58.65759,24.18927 17.7486,-0.0578 33.37815,-12.36931 49.0936,-20.62024 13.52723,-7.10207 29.25407,-12.62348 38.60699,-24.70654 9.20345,-11.88998 6.13205,-30.07518 14.01793,-42.87753 6.70819,-10.89042 21.74217,-15.49045 27.20759,-27.05499 7.73151,-16.35945 11.88378,-37.25118 5.13954,-54.04198 -9.68292,-24.1071 -33.4048,-46.47032 -58.99476,-50.91539 -18.49372,-3.21243 -33.77277,20.53496 -52.54132,20.26374 -17.53096,-0.25333 -30.99311,-21.09169 -48.5097,-20.33775 -29.94136,1.28871 -49.85532,38.32075 -79.62653,41.75975 -6.49388,0.75013 -13.91775,-0.78082 -18.98708,-4.9093 -23.49236,-19.13227 -32.00942,-52.37572 -40.11006,-81.57471 -4.64494,-16.74283 0.76477,-35.34795 -4.38761,-51.94159 -4.32357,-13.92437 -8.27928,-32.20139 -21.65204,-38.00339 z"
       style="fill:#c6c6c6;fill-opacity:1;stroke:#000000;stroke-width:9.375;stroke-linecap:round;stroke-linejoin:round;stroke-miterlimit:4;stroke-dasharray:none;stroke-opacity:1" />
    <ellipse
       ry="26.345205"
       rx="26.338001"
       style="opacity:1;fill:#ff6600;fill-opacity:1;stroke:none;stroke-width:14.99999714;stroke-linecap:butt;stroke-linejoin:bevel;stroke-miterlimit:4;stroke-dasharray:none;stroke-dashoffset:0;stroke-opacity:1"
       id="circle859"
       cx="424.26465"
       cy="666.44806" />
    <path
       id="path870"
       d="m 140.92985,817.7847 c 30.21097,-0.51514 47.46661,-10.24065 80.17373,-13.77331 13.02945,-1.4073 26.36342,-0.33457 39.2046,-2.95252 19.47728,-3.97086 36.62609,-20.25256 56.47368,-19.1582 15.91097,0.8773 26.66811,7.66444 42.57931,8.53763 20.53971,1.12719 32.99689,-12.84471 53.3124,-9.61434 10.33795,1.64385 21.23853,16.47786 30.98696,20.2923 6.66501,2.60793 16.42598,-2.85812 23.55077,-2.18182 26.23303,2.4901 37.60899,11.11223 76.56469,11.20136 -26.24916,-31.99593 -55.49444,-34.28319 -79.91265,-55.68074 -19.04451,-16.68862 -26.59225,-50.28468 -51.23748,-56.08833 -18.271,-4.30259 -33.77277,20.53496 -52.54132,20.26375 -17.53096,-0.25334 -31.05093,-21.94759 -48.5097,-20.33775 -31.20217,2.87708 -52.1718,34.73706 -78.59222,51.58832 -36.23553,23.11146 -62.79616,28.21421 -92.05277,67.90365 z"
       style="fill:#c6c6c6;fill-opacity:1;stroke:#000000;stroke-width:9.375;stroke-linecap:round;stroke-linejoin:round;stroke-miterlimit:4;stroke-dasharray:none;stroke-opacity:1" />
    <path
       id="path875"
       d="m 215.12441,636.42929 c 21.19895,-41.58885 63.39085,-51.07646 111.1433,-42.67115 l -0.96263,31.05274 c -0.28,9.03237 -114.48493,22.20873 -110.18067,11.61841 z"
       style="fill:#c6c6c6;fill-opacity:1;stroke:#000000;stroke-width:9.37499905;stroke-linecap:round;stroke-linejoin:round;stroke-miterlimit:4;stroke-dasharray:none;stroke-opacity:1" />
    <path
       style="fill:#c6c6c6;fill-opacity:1;stroke:#000000;stroke-width:9.37499905;stroke-linecap:round;stroke-linejoin:round;stroke-miterlimit:4;stroke-dasharray:none;stroke-opacity:1"
       d="m 491.23431,634.13913 c -19.99524,-38.10789 -59.79143,-46.80137 -104.83243,-39.0996 l 0.90796,28.45365 c 0.2641,8.27634 107.98433,20.34984 103.92447,10.64595 z"
       id="path879" />
  </g>
</svg>
